<svg height="511pt" viewBox="-4 1 511 511.99899" width="511pt" xmlns="http://www.w3.org/2000/svg"><path d="m408.304688 414.171875v59.824219c0 16.8125-13.625 30.4375-30.429688 30.4375h-339.378906c-16.804688 0-30.429688-13.625-30.429688-30.4375v-59.824219c0-9.851563 4.683594-18.609375 11.949219-24.171875 5.117187-3.925781 11.527344-6.257812 18.480469-6.257812h339.378906c16.804688 0 30.429688 13.625 30.429688 30.429687zm0 0" fill="#1ed688"/><path d="m408.304688 414.171875v42.960937c-5.128907 3.925782-11.535157 6.257813-18.480469 6.257813h-339.378907c-16.804687 0-30.429687-13.625-30.429687-30.429687v-42.960938c5.117187-3.925781 11.527344-6.257812 18.480469-6.257812h339.378906c16.804688 0 30.429688 13.625 30.429688 30.429687zm0 0" fill="#35e298"/><path d="m443.371094 181.230469v140.234375c0 14.503906-11.746094 26.25-26.238282 26.25h-255.171874c-14.503907 0-26.25-11.746094-26.25-26.25v-140.234375c0-14.492188 11.746093-26.242188 26.25-26.242188h255.171874c14.492188 0 26.238282 11.75 26.238282 26.242188zm0 0" fill="#ffc14f"/><path d="m443.371094 181.230469v114.007812h-219.851563c-14.5 0-26.25-11.746093-26.25-26.25v-114h219.863281c14.492188 0 26.238282 11.75 26.238282 26.242188zm0 0" fill="#ffcd71"/><path d="m181.566406 154.988281v190.980469l-.230468 1.746094h-19.375c-14.503907 0-26.25-11.746094-26.25-26.25v-140.234375c0-14.492188 11.746093-26.242188 26.25-26.242188zm0 0" fill="#f29500"/><path d="m352.949219 30.96875v63.054688c0 12.917968-10.476563 23.402343-23.402344 23.402343h-240.984375c-12.929688 0-23.40625-10.484375-23.40625-23.402343v-63.054688c0-8.828125 4.886719-16.507812 12.113281-20.496094 3.347657-1.855468 7.195313-2.90625 11.292969-2.90625h240.984375c12.925781 0 23.402344 10.476563 23.402344 23.402344zm0 0" fill="#6990d7"/><path d="m352.949219 30.96875v49.238281c-3.351563 1.859375-7.195313 2.90625-11.292969 2.90625h-240.984375c-12.929687 0-23.402344-10.484375-23.402344-23.402343v-49.238282c3.347657-1.855468 7.195313-2.90625 11.292969-2.90625h240.984375c12.925781 0 23.402344 10.476563 23.402344 23.402344zm0 0" fill="#91aee2"/><path d="m450.945312 321.46875v-140.234375c0-18.648437-15.167968-33.816406-33.816406-33.816406h-46.820312c-4.179688 0-7.570313 3.386719-7.570313 7.566406 0 4.183594 3.390625 7.570313 7.570313 7.570313h46.820312c10.300782 0 18.679688 8.378906 18.679688 18.679687v140.234375c0 10.296875-8.378906 18.675781-18.679688 18.675781h-227.992187v-177.589843h150.894531c4.179688 0 7.570312-3.386719 7.570312-7.570313 0-4.179687-3.390624-7.566406-7.570312-7.566406h-178.074219c-18.648437 0-33.816406 15.167969-33.816406 33.816406v140.234375c0 18.644531 15.167969 33.816406 33.816406 33.816406h255.171875c18.648438 0 33.816406-15.171875 33.816406-33.816406zm-276.945312 18.675781h-12.042969c-10.300781 0-18.679687-8.378906-18.679687-18.675781v-140.234375c0-10.300781 8.378906-18.679687 18.679687-18.679687h12.042969zm0 0"/><path d="m405.644531 182.828125h-196.792969c-4.179687 0-7.566406 3.386719-7.566406 7.570313 0 4.179687 3.386719 7.566406 7.566406 7.566406h196.792969c4.179688 0 7.570313-3.386719 7.570313-7.566406 0-4.183594-3.390625-7.570313-7.570313-7.570313zm0 0"/><path d="m405.644531 223.464844h-196.792969c-4.179687 0-7.566406 3.386718-7.566406 7.570312 0 4.179688 3.386719 7.566406 7.566406 7.566406h196.792969c4.179688 0 7.570313-3.386718 7.570313-7.566406 0-4.183594-3.390625-7.570312-7.570313-7.570312zm0 0"/><path d="m405.644531 264.097656h-196.792969c-4.179687 0-7.566406 3.390625-7.566406 7.570313 0 4.179687 3.386719 7.570312 7.566406 7.570312h196.792969c4.179688 0 7.570313-3.390625 7.570313-7.570312 0-4.179688-3.390625-7.570313-7.570313-7.570313zm0 0"/><path d="m405.644531 304.734375h-196.792969c-4.179687 0-7.566406 3.386719-7.566406 7.570313 0 4.179687 3.386719 7.566406 7.566406 7.566406h196.792969c4.179688 0 7.570313-3.386719 7.570313-7.566406 0-4.183594-3.390625-7.570313-7.570313-7.570313zm0 0"/><path d="m39.535156 259.179688h71.523438c4.179687 0 7.566406-3.386719 7.566406-7.570313 0-4.179687-3.386719-7.566406-7.566406-7.566406h-71.523438c-10.234375 0-18.5625-8.328125-18.5625-18.5625v-135.480469c0-10.234375 8.328125-18.5625 18.5625-18.5625 4.183594 0 7.570313-3.386719 7.570313-7.570312 0-4.179688-3.386719-7.566407-7.570313-7.566407-18.582031 0-33.699218 15.117188-33.699218 33.699219v135.480469c0 18.582031 15.117187 33.699219 33.699218 33.699219zm0 0"/><path d="m88.558594 124.992188h240.988281c17.078125 0 30.96875-13.890626 30.96875-30.96875v-42.238282c0-4.179687-3.386719-7.570312-7.570313-7.570312-4.179687 0-7.566406 3.390625-7.566406 7.570312v42.238282c0 8.730468-7.101562 15.832031-15.832031 15.832031h-240.988281c-8.726563 0-15.828125-7.101563-15.828125-15.832031v-63.054688c0-8.730469 7.101562-15.832031 15.828125-15.832031h240.988281c6.347656 0 12.066406 3.773437 14.5625 9.609375 1.644531 3.84375 6.097656 5.625 9.9375 3.980468 3.84375-1.648437 5.625-6.09375 3.980469-9.9375-4.886719-11.414062-16.0625-18.789062-28.480469-18.789062h-240.988281c-17.074219 0-30.96875 13.890625-30.96875 30.96875v63.054688c0 17.078124 13.894531 30.96875 30.96875 30.96875zm0 0"/><path d="m311.175781 73.839844h-204.246093c-4.179688 0-7.566407 3.386718-7.566407 7.566406 0 4.183594 3.386719 7.570312 7.566407 7.570312h204.246093c4.179688 0 7.570313-3.386718 7.570313-7.570312 0-4.179688-3.390625-7.566406-7.570313-7.566406zm0 0"/><path d="m311.175781 36.015625h-204.246093c-4.179688 0-7.566407 3.386719-7.566407 7.570313 0 4.179687 3.386719 7.566406 7.566407 7.566406h204.246093c4.179688 0 7.570313-3.386719 7.570313-7.566406 0-4.183594-3.390625-7.570313-7.570313-7.570313zm0 0"/><path d="m297.417969 455.425781h-248.605469c-4.179688 0-7.566406 3.390625-7.566406 7.570313 0 4.179687 3.386718 7.570312 7.566406 7.570312h248.601562c4.179688 0 7.570313-3.390625 7.570313-7.570312 0-4.179688-3.386719-7.570313-7.566406-7.570313zm0 0"/><path d="m297.417969 417.605469h-248.605469c-4.179688 0-7.566406 3.386719-7.566406 7.570312 0 4.179688 3.386718 7.566407 7.566406 7.566407h248.601562c4.179688 0 7.570313-3.386719 7.570313-7.566407 0-4.183593-3.386719-7.570312-7.566406-7.570312zm0 0"/><path d="m471.238281 231.234375c-4.179687 0-7.570312 3.386719-7.570312 7.570313 0 4.179687 3.390625 7.566406 7.570312 7.566406 9.476563 0 17.183594 7.710937 17.183594 17.1875v155.769531c0 9.476563-7.707031 17.183594-17.183594 17.183594h-35.074219c-4.179687 0-7.566406 3.390625-7.566406 7.570312 0 4.179688 3.386719 7.570313 7.566406 7.570313h35.074219c17.824219 0 32.320313-14.5 32.320313-32.324219v-155.769531c0-17.824219-14.496094-32.324219-32.320313-32.324219zm0 0"/><path d="m377.875 376.171875h-147.96875c-4.179688 0-7.570312 3.386719-7.570312 7.570313 0 4.179687 3.390624 7.566406 7.570312 7.566406h147.96875c12.605469 0 22.863281 10.257812 22.863281 22.863281v59.828125c0 12.605469-10.257812 22.859375-22.863281 22.859375h-339.375c-12.605469 0-22.863281-10.253906-22.863281-22.859375v-59.828125c0-12.605469 10.257812-22.863281 22.863281-22.863281h161.128906c4.179688 0 7.570313-3.386719 7.570313-7.566406 0-4.183594-3.390625-7.570313-7.570313-7.570313h-161.128906c-20.953125 0-38 17.046875-38 38v59.828125c0 20.953125 17.046875 38 38 38h339.375c20.953125 0 38-17.046875 38-38v-59.828125c0-20.953125-17.046875-38-38-38zm0 0"/><path d="m343.410156 467.910156 34.042969-50.546875c2.335937-3.46875 1.417969-8.171875-2.050781-10.507812-3.46875-2.332031-8.171875-1.414063-10.503906 2.050781l-27.765626 41.222656-9.195312-13.652344c-2.332031-3.46875-7.039062-4.382812-10.503906-2.046874-3.46875 2.332031-4.386719 7.039062-2.050782 10.503906l15.472657 22.976562c2.996093 4.449219 9.558593 4.449219 12.554687 0zm0 0"/></svg>