<svg height="512" viewBox="0 0 64 64" width="512" xmlns="http://www.w3.org/2000/svg"><g id="Computer-Engineer-Workflow-Algorithm-Programimng"><path d="m53 15v26h-50v-26a4 4 0 0 1 4-4h42a4 4 0 0 1 4 4z" fill="#3d9ae2"/><path d="m47 5v4h-38v-4a2.006 2.006 0 0 1 2-2h34a2.006 2.006 0 0 1 2 2z" fill="#ff5023"/><path d="m47 9v30a2.006 2.006 0 0 1 -2 2h-34a2.006 2.006 0 0 1 -2-2v-30z" fill="#5aaae7"/><path d="m41 27v4h-3-3v-4h3z" fill="#00ccb3"/><rect fill="#898890" height="4" rx="1" width="24" x="16" y="57"/><path d="m36 57h-16l1-8h14z" fill="#acabb1"/><path d="m32 13v4h-4-4v-4z" fill="#ffd422"/><path d="m31 35v2h-6v-2-2h3 3z" fill="#ff9811"/><path d="m21 27v4h-3-3v-4h3z" fill="#00ccb3"/><path d="m53 41v4a4 4 0 0 1 -4 4h-42a4 4 0 0 1 -4-4v-4z" fill="#c6c5ca"/><path d="m61 58.9v2.1h-9l-1.82-6.18.82-.82 3 1 .7-2.8 2.74 1.22a6 6 0 0 1 3.56 5.48z" fill="#3d9ae2"/><path d="m57.41 33.59a1.955 1.955 0 0 1 .59 1.41 2.006 2.006 0 0 1 -2 2h-14a2.015 2.015 0 0 1 -2-2 2.006 2.006 0 0 1 2-2h14a1.955 1.955 0 0 1 1.41.59z" fill="#f7910c"/><path d="m56 33h-5v-5.91a5.984 5.984 0 0 1 4.91 4.91 5.47 5.47 0 0 1 .09 1z" fill="#ff9811"/><path d="m54.7 52.2-.7 2.8-3-1-1-2 2-1z" fill="#1e81ce"/><path d="m50.18 54.82 1.82 6.18h-6l1.82-6.18 1.18 1.18z" fill="#ed1c24"/><path d="m51 27.09v5.91h-4v-7a1 1 0 0 1 1-1h2a1 1 0 0 1 1 1z" fill="#ffa733"/><path d="m50 52 1 2-.82.82-1.18 1.18-1.18-1.18-.82-.82 1-2z" fill="#ed1c24"/><path d="m48 52-1 2-3 1-.7-2.8 2.7-1.2z" fill="#1e81ce"/><path d="m47.82 54.82-1.82 6.18h-9v-2.1a6 6 0 0 1 3.56-5.48l2.74-1.22.7 2.8 3-1z" fill="#3d9ae2"/><path d="m47 27.09v5.91h-5a5.47 5.47 0 0 1 .09-1 5.992 5.992 0 0 1 4.91-4.91z" fill="#ff9811"/><path d="m52 48v3l-2 1h-2l-2-1v-3z" fill="#ffc477"/><path d="m43 39v4h-2a2 2 0 0 1 0-4z" fill="#ffb655"/><path d="m59 41a2.006 2.006 0 0 1 -2 2h-2v-4h2a2.006 2.006 0 0 1 2 2z" fill="#ffb655"/><path d="m52 48v2.32a6.958 6.958 0 0 1 -6 0v-2.32z" fill="#ffb655"/><path d="m56 39v3a5.474 5.474 0 0 1 -.08 1 6.952 6.952 0 0 1 -3.92 5.32 6.982 6.982 0 0 1 -9.92-5.32 5.474 5.474 0 0 1 -.08-1v-5h14z" fill="#ffc477"/><path d="m42 37h14v2h-14z" fill="#ffb655"/><path d="m35.25 51h-14.5l.25-2h14z" fill="#898890"/><g fill="#ffb655"><path d="m39 27h-2v-2h-8v-2h9a1 1 0 0 1 1 1z"/><path d="m19 27h-2v-3a1 1 0 0 1 1-1h9v2h-8z"/><path d="m27 17h2v6h-2z"/><path d="m27 25h2v8h-2z"/><path d="m25 36h-7a1 1 0 0 1 -1-1v-4h2v3h6z"/><path d="m38 36h-7v-2h6v-3h2v4a1 1 0 0 1 -1 1z"/></g><path d="m12 5h2v2h-2z" fill="#ed1c24"/><path d="m16 5h2v2h-2z" fill="#ed1c24"/><path d="m20 5h2v2h-2z" fill="#ed1c24"/><path d="m45 40h2v2h-2z" fill="#ff9811"/><path d="m51 40h2v2h-2z" fill="#ff9811"/><path d="m25.879 21.879h4.243v4.243h-4.243z" fill="#ff5023" transform="matrix(.707 -.707 .707 .707 -8.77 26.828)"/></g></svg>