<svg id="Capa_1" enable-background="new 0 0 512 512" height="512" viewBox="0 0 512 512" width="512" xmlns="http://www.w3.org/2000/svg"><g id="XMLID_2919_"><path id="XMLID_1791_" d="m70.872 315.852c-17.468-35.14-27.249-76.959-26.617-114.15 1.836-108.054 90.228-193.423 198.283-191.679 106.268 1.716 191.886 88.396 191.886 195.073l32.896 107.106c1.963 6.391-2.816 12.858-9.501 12.858h-44.938v55.217c0 31.878-25.842 57.72-57.72 57.72h-66.054l-18.333 64h-202l16.063-66.615c9.701-40.236 4.459-82.467-13.965-119.53z" fill="#ffe6c0"/><g id="XMLID_2230_"><circle id="XMLID_2240_" cx="141.645" cy="263.997" fill="#d8ec84" r="24"/><circle id="XMLID_2239_" cx="237.643" cy="263.997" fill="#f6838d" r="24"/><circle id="XMLID_2238_" cx="333.645" cy="263.997" fill="#ffcb7c" r="24"/><path id="XMLID_2232_" d="m181.645 87.997h112v64h-112z" fill="#91def5"/><g id="XMLID_1263_"><path id="XMLID_1294_" d="m476.878 309.267-32.46-105.689c-.387-53.632-21.292-104.147-58.962-142.396-37.984-38.564-88.683-60.284-142.757-61.157-38.447-.59-76.051 9.368-108.741 28.887-4.742 2.831-6.291 8.971-3.459 13.713 2.831 4.741 8.97 6.289 13.712 3.459 29.494-17.61 63.451-26.623 98.165-26.061 100.381 1.62 182.047 84.645 182.047 185.073 0 .995.148 1.984.441 2.936l32.871 107.028h-44.855c-5.523 0-10 4.478-10 10v55.217c0 26.313-21.407 47.721-47.72 47.721h-76.375c-23.776 0-46.128-9.259-62.94-26.071-3.905-3.904-10.237-3.904-14.143 0-3.905 3.905-3.905 10.237 0 14.143 19.897 19.897 46.131 31.153 74.149 31.888l-14.692 51.287c-1.521 5.31 1.55 10.847 6.859 12.367.92.264 1.847.39 2.759.39 4.349 0 8.351-2.86 9.608-7.249l16.258-56.754h58.516c37.341 0 67.72-30.379 67.72-67.721v-45.218h34.938c6.392 0 12.237-2.948 16.036-8.089 3.8-5.142 4.902-11.594 3.025-17.704z"/><path id="XMLID_1577_" d="m54.253 201.871c.587-34.547 10.642-68.02 29.076-96.799 2.979-4.65 1.624-10.835-3.026-13.814-4.65-2.977-10.835-1.623-13.814 3.027-20.437 31.903-31.583 68.988-32.232 107.246-.66 38.791 9.422 82.081 27.661 118.771 17.534 35.274 22.221 75.311 13.197 112.735l-16.063 66.615c-1.295 5.368 2.008 10.771 7.377 12.065.788.189 1.576.28 2.353.28 4.513 0 8.608-3.077 9.713-7.658l16.063-66.615c10.124-41.985 4.893-86.849-14.73-126.325-16.86-33.913-26.181-73.835-25.575-109.528z"/><path id="XMLID_1578_" d="m110.436 57.792c-3.905-3.904-10.237-3.904-14.143 0-3.905 3.905-3.905 10.237 0 14.143l.01.01c1.952 1.951 4.508 2.927 7.064 2.927 2.56 0 5.12-.979 7.074-2.932 3.904-3.905 3.899-10.242-.005-14.148z"/><path id="XMLID_1581_" d="m151.899 231.581v-25.583h75.777v25.493c-13.899 4.27-24.033 17.226-24.033 32.507 0 18.748 15.252 34 34 34s34-15.252 34-34c0-15.257-10.102-28.197-23.967-32.488v-25.512h75.969v25.502c-13.882 4.281-24 17.228-24 32.497 0 18.748 15.252 34 34 34s34-15.252 34-34c0-15.269-10.118-28.217-24-32.497v-35.503c0-5.522-4.477-10-10-10h-85.969v-24h45.969c5.523 0 10-4.478 10-10v-64c0-5.522-4.477-10-10-10h-112c-5.523 0-10 4.478-10 10v64c0 5.522 4.477 10 10 10h46.031v24h-85.777c-5.523 0-10 4.478-10 10v35.431c-14.012 4.201-24.254 17.208-24.254 32.569 0 18.748 15.252 34 34 34s34-15.252 34-34c.001-15.175-9.994-28.056-23.746-32.416zm85.744 46.416c-7.72 0-14-6.28-14-14s6.28-14 14-14 14 6.28 14 14-6.28 14-14 14zm96.003 0c-7.72 0-14-6.28-14-14s6.28-14 14-14 14 6.28 14 14-6.281 14-14 14zm-142-180h92v44h-92zm-50 180c-7.72 0-14-6.28-14-14s6.28-14 14-14 14 6.28 14 14-6.281 14-14 14z"/></g></g></g></svg>